<svg width="8" height="14" viewBox="0 0 8 14" fill="none" xmlns="http://www.w3.org/2000/svg">
<path fill-rule="evenodd" clip-rule="evenodd" d="M7.71378 6.62907C7.90132 6.81653 8.00673 7.0708 8.00683 7.33596C8.00693 7.60113 7.90171 7.85547 7.7143 8.04307L2.05941 13.7022C1.9672 13.7977 1.85688 13.8739 1.7349 13.9264C1.61291 13.9789 1.4817 14.0065 1.34892 14.0077C1.21614 14.0089 1.08446 13.9836 0.961541 13.9334C0.838626 13.8832 0.726945 13.809 0.633018 13.7151C0.53909 13.6212 0.464796 13.5096 0.414469 13.3867C0.364142 13.2639 0.338792 13.1322 0.339896 12.9994C0.341001 12.8666 0.368538 12.7354 0.420902 12.6134C0.473266 12.4914 0.549406 12.381 0.644882 12.2887L5.59304 7.33686L0.6412 2.3887C0.458972 2.20016 0.358084 1.9476 0.360265 1.6854C0.362445 1.42321 0.467521 1.17235 0.65286 0.986877C0.838199 0.801401 1.08897 0.696137 1.35117 0.693761C1.61336 0.691386 1.866 0.792085 2.05467 0.974174L7.71378 6.62907Z" fill="black"/>
</svg>
