<svg width="14" height="9" viewBox="0 0 14 9" fill="none" xmlns="http://www.w3.org/2000/svg">
<path fill-rule="evenodd" clip-rule="evenodd" d="M7.55382 8.19879C7.3663 8.38626 7.11199 8.49158 6.84682 8.49158C6.58166 8.49158 6.32735 8.38626 6.13982 8.19879L0.482824 2.54179C0.387314 2.44954 0.311132 2.3392 0.258723 2.2172C0.206314 2.09519 0.178727 1.96397 0.177573 1.83119C0.17642 1.69841 0.201722 1.56673 0.252002 1.44384C0.302283 1.32094 0.376536 1.20929 0.470429 1.1154C0.564322 1.0215 0.675973 0.94725 0.79887 0.896969C0.921766 0.846688 1.05345 0.821386 1.18623 0.82254C1.319 0.823694 1.45022 0.85128 1.57223 0.903689C1.69423 0.956098 1.80458 1.03228 1.89682 1.12779L6.84682 6.07779L11.7968 1.12779C11.9854 0.945632 12.238 0.844838 12.5002 0.847116C12.7624 0.849394 13.0132 0.954563 13.1986 1.13997C13.3841 1.32538 13.4892 1.57619 13.4915 1.83839C13.4938 2.10059 13.393 2.35319 13.2108 2.54179L7.55382 8.19879Z" fill="black"/>
</svg>
