<svg width="64" height="56" viewBox="0 0 64 56" fill="none" xmlns="http://www.w3.org/2000/svg">
<path d="M63.25 31.2125V17.1047C63.25 12.9473 61.4774 8.96022 58.3223 6.02052C55.1671 3.08083 50.8878 1.42932 46.4257 1.42932H17.8243C13.3622 1.42932 9.0829 3.08083 5.92773 6.02052C2.77256 8.96022 1 12.9473 1 17.1047V39.0501C1 41.1087 1.43517 43.147 2.28068 45.0488C3.12618 46.9507 4.36545 48.6787 5.92773 50.1343C9.0829 53.074 13.3622 54.7255 17.8243 54.7255H38.8884" stroke="#A1A3AB" stroke-width="1.5" stroke-linecap="round" stroke-linejoin="round"/>
<path d="M1.875 43.7527L11.0947 33.7205C12.3055 32.6001 13.8947 31.9038 15.5931 31.7496C17.2916 31.5953 18.9952 31.9926 20.4154 32.8741C21.8357 33.7556 23.5392 34.1528 25.2377 33.9985C26.9361 33.8443 28.5253 33.148 29.7361 32.0276L37.5762 24.7229C39.829 22.6168 42.8116 21.3251 45.9919 21.0782C49.1721 20.8313 52.3431 21.6452 54.9389 23.3748L63.2501 29.3628M18.6993 22.3402C19.4328 22.3361 20.1583 22.1974 20.8343 21.9321C21.5103 21.6667 22.1236 21.2799 22.6391 20.7938C23.1547 20.3076 23.5624 19.7316 23.839 19.0986C24.1157 18.4656 24.2558 17.7881 24.2514 17.1047C24.2469 16.4212 24.0981 15.7453 23.8133 15.1155C23.5285 14.4857 23.1134 13.9143 22.5916 13.4339C22.0697 12.9536 21.4515 12.5737 20.7721 12.3159C20.0928 12.0582 19.3655 11.9277 18.632 11.9318C17.1506 11.9401 15.7334 12.4964 14.6922 13.4782C13.651 14.4601 13.0711 15.7871 13.08 17.1674C13.0889 18.5476 13.686 19.868 14.7398 20.8381C15.7936 21.8082 17.2179 22.3485 18.6993 22.3402Z" stroke="#A1A3AB" stroke-width="1.5" stroke-linecap="round" stroke-linejoin="round"/>
<path d="M54.6934 37.4825V53.1579" stroke="#A1A3AB" stroke-width="1.5" stroke-miterlimit="10" stroke-linecap="round"/>
<path d="M62.4086 44.0819L55.7899 37.9152C55.6465 37.7798 55.4757 37.6723 55.2874 37.599C55.0991 37.5256 54.897 37.4879 54.6929 37.4879C54.4888 37.4879 54.2868 37.5256 54.0985 37.599C53.9101 37.6723 53.7393 37.7798 53.596 37.9152L46.9773 44.0819" stroke="#A1A3AB" stroke-width="1.5" stroke-linecap="round" stroke-linejoin="round"/>
</svg>
