<svg width="25" height="28" viewBox="0 0 25 28" fill="none" xmlns="http://www.w3.org/2000/svg">
<path d="M19.8511 21.2698L18.4285 20.4499V17.6013C18.4285 17.5211 18.3965 17.4442 18.3397 17.3875C18.2829 17.3308 18.2059 17.299 18.1255 17.299C18.0452 17.299 17.9681 17.3308 17.9113 17.3875C17.8545 17.4442 17.8226 17.5211 17.8226 17.6013V20.6246C17.8226 20.6777 17.8366 20.7298 17.8631 20.7758C17.8897 20.8218 17.928 20.8599 17.974 20.8865L19.5482 21.7935C19.5825 21.8135 19.6205 21.8266 19.66 21.8319C19.6994 21.8372 19.7395 21.8346 19.778 21.8243C19.8164 21.814 19.8524 21.7962 19.8839 21.7719C19.9154 21.7476 19.9418 21.7173 19.9614 21.6828C20.0016 21.6134 20.0126 21.531 19.9919 21.4535C19.9713 21.3761 19.9206 21.31 19.8511 21.2698ZM18.1255 14.578C14.7791 14.578 12.0664 17.2851 12.0664 20.6246C12.0664 23.9642 14.7791 26.6713 18.1255 26.6713C21.4701 26.6676 24.181 23.9624 24.1846 20.6246C24.1846 17.2851 21.4719 14.578 18.1255 14.578ZM18.1255 26.0666C17.4094 26.0666 16.7003 25.9259 16.0387 25.6524C15.3771 25.3789 14.7759 24.978 14.2695 24.4727C13.7631 23.9674 13.3615 23.3674 13.0874 22.7072C12.8134 22.0469 12.6723 21.3393 12.6723 20.6246C12.6723 19.91 12.8134 19.2023 13.0874 18.5421C13.3615 17.8818 13.7631 17.2819 14.2695 16.7766C14.7759 16.2712 15.3771 15.8704 16.0387 15.5969C16.7003 15.3234 17.4094 15.1827 18.1255 15.1827C19.5713 15.1843 20.9574 15.7581 21.9797 16.7784C23.002 17.7986 23.5771 19.1818 23.5787 20.6246C23.5787 22.0679 23.0042 23.4521 21.9815 24.4727C20.9588 25.4933 19.5718 26.0666 18.1255 26.0666Z" fill="#888888" stroke="#A1A3AB"/>
<path d="M15.8909 2.39129H13.5073V1.59419C13.506 1.17178 13.3382 0.767019 13.0404 0.468322C12.7427 0.169626 12.3392 0.00126159 11.9182 0H5.56182C5.14075 0.00126159 4.73729 0.169626 4.43955 0.468322C4.14181 0.767019 3.97398 1.17178 3.97273 1.59419V2.39129H1.58909C1.16802 2.39255 0.764563 2.56092 0.466823 2.85961C0.169083 3.15831 0.00125755 3.56307 0 3.98549V20.7245C0.00125755 21.1469 0.169083 21.5517 0.466823 21.8504C0.764563 22.1491 1.16802 22.3175 1.58909 22.3187H8.74V20.7245H1.58909V3.98549H3.97273V6.37678H13.5073V3.98549H15.8909V12.7536H17.48V3.98549C17.4787 3.56307 17.3109 3.15831 17.0132 2.85961C16.7154 2.56092 16.312 2.39255 15.8909 2.39129ZM11.9182 4.78258H5.56182V1.59419H11.9182V4.78258Z" fill="#A1A3AB"/>
</svg>
